<svg width="24" height="24" viewBox="0 0 24 24" fill="none" xmlns="http://www.w3.org/2000/svg">
<path d="M21.75 3H2.25C1.00781 3 0 4.00781 0 5.25V18.75C0 19.9922 1.00781 21 2.25 21H21.75C22.9922 21 24 19.9922 24 18.75V5.25C24 4.00781 22.9922 3 21.75 3ZM2.25 4.5H21.75C22.1625 4.5 22.5 4.8375 22.5 5.25V7.19062C21.4734 8.05781 20.0062 9.25313 15.4406 12.8766C14.6484 13.5047 13.0875 15.0188 12 15C10.9125 15.0188 9.34688 13.5047 8.55938 12.8766C3.99375 9.25313 2.52656 8.05781 1.5 7.19062V5.25C1.5 4.8375 1.8375 4.5 2.25 4.5ZM21.75 19.5H2.25C1.8375 19.5 1.5 19.1625 1.5 18.75V9.14062C2.56875 10.0172 4.25625 11.3719 7.62656 14.0484C8.5875 14.8172 10.2844 16.5094 12 16.5C13.7063 16.5141 15.3891 14.8359 16.3734 14.0484C19.7437 11.3719 21.4313 10.0172 22.5 9.14062V18.75C22.5 19.1625 22.1625 19.5 21.75 19.5Z" fill="#4580C9"/>
</svg>
