<svg width="40" height="40" viewBox="0 0 40 40" fill="none" xmlns="http://www.w3.org/2000/svg">
<path d="M20 0C8.90625 0 0 8.98438 0 20C0 31.0938 8.90625 40 20 40C31.0156 40 40 31.0938 40 20C40 8.98438 31.0156 0 20 0ZM20 38.75C9.60938 38.75 1.25 30.3906 1.25 20C1.25 9.6875 9.60938 1.25 20 1.25C30.3125 1.25 38.75 9.6875 38.75 20C38.75 30.3906 30.3125 38.75 20 38.75Z" fill="white"/>
<path d="M16.125 26H13.2188V16.6562H16.125V26ZM14.6562 15.4062C13.75 15.4062 13 14.625 13 13.6875C13 12.4062 14.375 11.5938 15.5 12.25C16.0312 12.5312 16.3438 13.0938 16.3438 13.6875C16.3438 14.625 15.5938 15.4062 14.6562 15.4062ZM26.9688 26H24.0938V21.4688C24.0938 20.375 24.0625 19 22.5625 19C21.0625 19 20.8438 20.1562 20.8438 21.375V26H17.9375V16.6562H20.7188V17.9375H20.75C21.1562 17.2188 22.0938 16.4375 23.5 16.4375C26.4375 16.4375 27 18.375 27 20.875V26H26.9688Z" fill="white"/>
</svg>
