<svg width="24" height="24" viewBox="0 0 24 24" fill="none" xmlns="http://www.w3.org/2000/svg">
<g clip-path="url(#clip0_13_464)">
<path d="M22.6542 2.66671V21.3334H21.3209V2.66671H22.6542ZM15.9875 8.00004V21.3334H14.6542V8.00004H15.9875ZM9.32088 13.3334V21.3334H7.98755V13.3334H9.32088ZM2.65422 18.6667V21.3334H1.32088V18.6667H2.65422ZM22.6542 1.33337H21.3209C20.5846 1.33337 19.9875 1.93046 19.9875 2.66671V21.3334C19.9875 22.0696 20.5846 22.6667 21.3209 22.6667H22.6542C23.3905 22.6667 23.9875 22.0696 23.9875 21.3334V2.66671C23.9875 1.93046 23.3905 1.33337 22.6542 1.33337ZM15.9875 6.66671H14.6542C13.918 6.66671 13.3209 7.26379 13.3209 8.00004V21.3334C13.3209 22.0696 13.918 22.6667 14.6542 22.6667H15.9875C16.7238 22.6667 17.3209 22.0696 17.3209 21.3334V8.00004C17.3209 7.26379 16.7238 6.66671 15.9875 6.66671ZM9.32088 12H7.98755C7.2513 12 6.65422 12.5971 6.65422 13.3334V21.3334C6.65422 22.0696 7.2513 22.6667 7.98755 22.6667H9.32088C10.0571 22.6667 10.6542 22.0696 10.6542 21.3334V13.3334C10.6542 12.5971 10.0571 12 9.32088 12ZM2.65422 17.3334H1.32088C0.584632 17.3334 -0.0124512 17.9305 -0.0124512 18.6667V21.3334C-0.0124512 22.0696 0.584632 22.6667 1.32088 22.6667H2.65422C3.39047 22.6667 3.98755 22.0696 3.98755 21.3334V18.6667C3.98755 17.9305 3.39047 17.3334 2.65422 17.3334Z" fill="#204C82"/>
</g>
<defs>
<clipPath id="clip0_13_464">
<rect width="24" height="24" fill="white"/>
</clipPath>
</defs>
</svg>
