<svg width="24" height="24" viewBox="0 0 24 24" fill="none" xmlns="http://www.w3.org/2000/svg">
<g clip-path="url(#clip0_288_2829)">
<path d="M22.654 2.66671V21.3334H21.3207V2.66671H22.654ZM15.9873 8.00004V21.3334H14.654V8.00004H15.9873ZM9.32064 13.3334V21.3334H7.98731V13.3334H9.32064ZM2.65398 18.6667V21.3334H1.32064V18.6667H2.65398ZM22.654 1.33337H21.3207C20.5844 1.33337 19.9873 1.93046 19.9873 2.66671V21.3334C19.9873 22.0696 20.5844 22.6667 21.3207 22.6667H22.654C23.3903 22.6667 23.9873 22.0696 23.9873 21.3334V2.66671C23.9873 1.93046 23.3903 1.33337 22.654 1.33337ZM15.9873 6.66671H14.654C13.9178 6.66671 13.3207 7.26379 13.3207 8.00004V21.3334C13.3207 22.0696 13.9178 22.6667 14.654 22.6667H15.9873C16.7236 22.6667 17.3207 22.0696 17.3207 21.3334V8.00004C17.3207 7.26379 16.7236 6.66671 15.9873 6.66671ZM9.32064 12H7.98731C7.25106 12 6.65398 12.5971 6.65398 13.3334V21.3334C6.65398 22.0696 7.25106 22.6667 7.98731 22.6667H9.32064C10.0569 22.6667 10.654 22.0696 10.654 21.3334V13.3334C10.654 12.5971 10.0569 12 9.32064 12ZM2.65398 17.3334H1.32064C0.584388 17.3334 -0.0126953 17.9305 -0.0126953 18.6667V21.3334C-0.0126953 22.0696 0.584388 22.6667 1.32064 22.6667H2.65398C3.39023 22.6667 3.98731 22.0696 3.98731 21.3334V18.6667C3.98731 17.9305 3.39023 17.3334 2.65398 17.3334Z" fill="#4580C9"/>
</g>
<defs>
<clipPath id="clip0_288_2829">
<rect width="24" height="24" fill="white"/>
</clipPath>
</defs>
</svg>
