<svg width="24" height="18" viewBox="0 0 24 18" fill="none" xmlns="http://www.w3.org/2000/svg">
<path d="M23.625 16.5H1.5V0.375C1.5 0.167812 1.33219 0 1.125 0H0.375C0.167812 0 0 0.167812 0 0.375V17.25C0 17.6644 0.335625 18 0.75 18H23.625C23.8322 18 24 17.8322 24 17.625V16.875C24 16.6678 23.8322 16.5 23.625 16.5ZM4.60969 9.32953C4.46344 9.47578 4.46344 9.71344 4.60969 9.85969L5.13984 10.3898C5.28609 10.5361 5.52375 10.5361 5.67 10.3898L9.07734 7.01437L13.0472 10.9842C13.3402 11.2772 13.815 11.2772 14.108 10.9842L18.4922 6.6L20.5566 8.66438C20.7886 8.89641 21.0736 9 21.3534 9C21.9384 9 22.5 8.54531 22.5 7.85906V2.25891C22.5 1.83984 22.1602 1.5 21.7411 1.5H16.1409C15.1266 1.5 14.6189 2.72625 15.3361 3.44344L17.4319 5.53922L13.5778 9.39328L9.61078 5.42625C9.31875 5.13422 8.84578 5.13328 8.55281 5.42391L4.60969 9.32953ZM17.0138 3H21V6.98625L17.0138 3Z" fill="#204C82"/>
</svg>
