<svg width="32" height="32" viewBox="0 0 32 32" fill="none" xmlns="http://www.w3.org/2000/svg">
<path d="M11.1875 7.58594C11.2422 7.64062 11.3516 7.75 11.4062 7.80469C10.5859 7.80469 9.76562 7.91406 9 8.02344V6.875C9 6.05469 9.4375 5.39844 10.0391 4.85156C10.6406 4.35938 11.4609 3.92188 12.3906 3.59375C14.25 2.9375 16.7656 2.5 19.5 2.5C22.1797 2.5 24.6953 2.9375 26.5547 3.59375C27.4844 3.92188 28.3047 4.35938 28.9062 4.85156C29.5078 5.39844 30 6.05469 30 6.875V12.5625V18.7969C30 19.6719 29.5078 20.3828 28.9062 20.875C28.3047 21.4219 27.5391 21.8594 26.6094 22.2422C26.0078 22.4609 25.4062 22.625 24.75 22.7891V20.9844C25.1875 20.875 25.5703 20.7109 25.9531 20.6016C26.7734 20.2734 27.375 19.9453 27.7578 19.6172C28.1406 19.2344 28.25 18.9609 28.25 18.7969V15.1875C27.7578 15.5156 27.2109 15.7891 26.6094 16.0078C26.0078 16.2266 25.4062 16.3906 24.75 16.5547V14.75C25.1875 14.6406 25.5703 14.5312 25.9531 14.3672C26.7734 14.0391 27.375 13.7109 27.7578 13.3828C28.1406 13 28.25 12.7812 28.25 12.5625V9.44531C27.7578 9.71875 27.2109 9.99219 26.5547 10.2109C25.625 10.5391 24.5312 10.8125 23.2734 10.9766C23.2188 10.8672 23.1094 10.8125 23 10.7031C22.4531 10.2109 21.7969 9.77344 21.1406 9.44531C23.0547 9.33594 24.6953 9.00781 25.9531 8.57031C26.7734 8.24219 27.375 7.91406 27.7578 7.58594C28.1406 7.25781 28.25 7.03906 28.25 6.875C28.25 6.76562 28.1406 6.54688 27.7578 6.21875C27.375 5.89062 26.7734 5.5625 25.9531 5.23438C24.3672 4.63281 22.0703 4.25 19.5 4.25C16.875 4.25 14.5781 4.63281 12.9922 5.23438C12.1719 5.5625 11.5703 5.89062 11.1875 6.21875C10.8047 6.54688 10.6953 6.76562 10.6953 6.875C10.6953 7.03906 10.8047 7.25781 11.1875 7.58594ZM2 13.875C2 13.0547 2.4375 12.3984 3.03906 11.8516C3.64062 11.3594 4.46094 10.9219 5.39062 10.5938C7.25 9.9375 9.76562 9.5 12.5 9.5C15.1797 9.5 17.6953 9.9375 19.5547 10.5938C20.4844 10.9219 21.3047 11.3594 21.9062 11.8516C22.5078 12.3984 23 13.0547 23 13.875V25.7969C23 26.6719 22.5078 27.3828 21.9062 27.875C21.3047 28.4219 20.5391 28.8594 19.6094 29.2422C17.75 29.9531 15.2344 30.3359 12.5 30.3359C9.71094 30.3359 7.19531 29.9531 5.33594 29.2422C4.40625 28.8594 3.64062 28.4219 3.03906 27.875C2.4375 27.3828 2 26.6719 2 25.7969V13.875ZM4.1875 14.5859C4.57031 14.9141 5.17188 15.2422 5.99219 15.5703C7.57812 16.1172 9.875 16.5 12.5 16.5C15.0703 16.5 17.3672 16.1172 18.9531 15.5703C19.7734 15.2422 20.375 14.9141 20.7578 14.5859C21.1406 14.2578 21.25 14.0391 21.25 13.875C21.25 13.7656 21.1406 13.5469 20.7578 13.2188C20.375 12.8906 19.7734 12.5625 18.9531 12.2344C17.3672 11.6328 15.0703 11.25 12.5 11.25C9.875 11.25 7.57812 11.6328 5.99219 12.2344C5.17188 12.5625 4.57031 12.8906 4.1875 13.2188C3.80469 13.5469 3.75 13.7656 3.75 13.875C3.75 14.0391 3.80469 14.2578 4.1875 14.5859ZM19.5547 17.2109C17.6953 17.8672 15.1797 18.25 12.5 18.25C9.76562 18.25 7.25 17.8672 5.39062 17.2109C4.73438 16.9922 4.1875 16.7188 3.75 16.4453V19.5625C3.75 19.7812 3.80469 20 4.1875 20.3828C4.57031 20.7109 5.17188 21.0391 5.99219 21.3672C7.57812 21.9688 9.875 22.3516 12.5 22.3516C15.0703 22.3516 17.3672 21.9688 18.9531 21.3672C19.7734 21.0391 20.375 20.7109 20.7578 20.3828C21.1406 20 21.25 19.7812 21.25 19.5625V16.4453C20.7578 16.7188 20.2109 16.9922 19.5547 17.2109ZM4.1875 26.6172C4.57031 26.9453 5.17188 27.2734 5.99219 27.6016C7.57812 28.2031 9.875 28.5859 12.5 28.5859C15.0703 28.5859 17.3672 28.2031 18.9531 27.6016C19.7734 27.2734 20.375 26.9453 20.7578 26.6172C21.1406 26.2344 21.25 25.9609 21.25 25.7969V22.1875C20.7578 22.5156 20.2109 22.7891 19.6094 23.0078C17.75 23.7188 15.2344 24.1016 12.5 24.1016C9.71094 24.1016 7.19531 23.7188 5.33594 23.0078C4.73438 22.7891 4.1875 22.5156 3.69531 22.1875V25.7969C3.69531 25.9609 3.80469 26.2344 4.1875 26.6172Z" fill="#204C82"/>
</svg>
