<svg width="24" height="24" viewBox="0 0 24 24" fill="none" xmlns="http://www.w3.org/2000/svg">
<path d="M0.5625 8.99998H18V11.625C18 13.0102 19.7122 13.644 20.6211 12.6215L23.6211 9.24654C24.1263 8.67823 24.1263 7.82178 23.6211 7.25346L20.6211 3.87846C19.7126 2.85635 18 3.48917 18 4.87498V7.49998H0.5625C0.251859 7.49998 0 7.75184 0 8.06248V8.43748C0 8.74812 0.251859 8.99998 0.5625 8.99998ZM19.5 4.87498L22.5 8.24998L19.5 11.625V4.87498ZM23.4375 15H6V12.375C6 10.9897 4.28775 10.356 3.37889 11.3784L0.378891 14.7534C-0.126281 15.3217 -0.126281 16.1782 0.378891 16.7465L3.37889 20.1215C4.28742 21.1436 6 20.5108 6 19.125V16.5H23.4375C23.7481 16.5 24 16.2481 24 15.9375V15.5625C24 15.2518 23.7481 15 23.4375 15ZM4.5 19.125L1.5 15.75L4.5 12.375V19.125Z" fill="#204C82"/>
</svg>
