<svg width="24" height="18" viewBox="0 0 24 18" fill="none" xmlns="http://www.w3.org/2000/svg">
<path d="M0.5625 5.99998H18V8.62498C18 10.0102 19.7122 10.644 20.6211 9.62154L23.6211 6.24654C24.1263 5.67823 24.1263 4.82178 23.6211 4.25346L20.6211 0.878464C19.7126 -0.143645 18 0.489167 18 1.87498V4.49998H0.5625C0.251859 4.49998 0 4.75184 0 5.06248V5.43748C0 5.74812 0.251859 5.99998 0.5625 5.99998ZM19.5 1.87498L22.5 5.24998L19.5 8.62498V1.87498ZM23.4375 12H6V9.37498C6 7.98973 4.28775 7.35598 3.37889 8.37842L0.378891 11.7534C-0.126281 12.3217 -0.126281 13.1782 0.378891 13.7465L3.37889 17.1215C4.28742 18.1436 6 17.5108 6 16.125V13.5H23.4375C23.7481 13.5 24 13.2481 24 12.9375V12.5625C24 12.2518 23.7481 12 23.4375 12ZM4.5 16.125L1.5 12.75L4.5 9.37498V16.125Z" fill="#204C82"/>
</svg>
