<svg width="24" height="24" viewBox="0 0 24 24" fill="none" xmlns="http://www.w3.org/2000/svg">
<path d="M23.625 19.5H1.5V3.375C1.5 3.16781 1.33219 3 1.125 3H0.375C0.167812 3 0 3.16781 0 3.375V20.25C0 20.6644 0.335625 21 0.75 21H23.625C23.8322 21 24 20.8322 24 20.625V19.875C24 19.6678 23.8322 19.5 23.625 19.5ZM4.60969 12.3295C4.46344 12.4758 4.46344 12.7134 4.60969 12.8597L5.13984 13.3898C5.28609 13.5361 5.52375 13.5361 5.67 13.3898L9.07734 10.0144L13.0472 13.9842C13.3402 14.2772 13.815 14.2772 14.108 13.9842L18.4922 9.6L20.5566 11.6644C20.7886 11.8964 21.0736 12 21.3534 12C21.9384 12 22.5 11.5453 22.5 10.8591V5.25891C22.5 4.83984 22.1602 4.5 21.7411 4.5H16.1409C15.1266 4.5 14.6189 5.72625 15.3361 6.44344L17.4319 8.53922L13.5778 12.3933L9.61078 8.42625C9.31875 8.13422 8.84578 8.13328 8.55281 8.42391L4.60969 12.3295ZM17.0138 6H21V9.98625L17.0138 6Z" fill="#204C82"/>
</svg>
