<svg width="24" height="18" viewBox="0 0 24 18" fill="none" xmlns="http://www.w3.org/2000/svg">
<path d="M21.75 0H2.25C1.00781 0 0 1.00781 0 2.25V15.75C0 16.9922 1.00781 18 2.25 18H21.75C22.9922 18 24 16.9922 24 15.75V2.25C24 1.00781 22.9922 0 21.75 0ZM2.25 1.5H21.75C22.1625 1.5 22.5 1.8375 22.5 2.25V4.19062C21.4734 5.05781 20.0063 6.25313 15.4406 9.87656C14.6484 10.5047 13.0875 12.0188 12 12C10.9125 12.0188 9.34688 10.5047 8.55938 9.87656C3.99375 6.25313 2.52656 5.05781 1.5 4.19062V2.25C1.5 1.8375 1.8375 1.5 2.25 1.5ZM21.75 16.5H2.25C1.8375 16.5 1.5 16.1625 1.5 15.75V6.14062C2.56875 7.01719 4.25625 8.37188 7.62656 11.0484C8.5875 11.8172 10.2844 13.5094 12 13.5C13.7063 13.5141 15.3891 11.8359 16.3734 11.0484C19.7437 8.37188 21.4312 7.01719 22.5 6.14062V15.75C22.5 16.1625 22.1625 16.5 21.75 16.5Z" fill="#204C82"/>
</svg>
