<svg width="24" height="24" viewBox="0 0 24 24" fill="none" xmlns="http://www.w3.org/2000/svg">
<g clip-path="url(#clip0_13_432)">
<path d="M23.1757 3.0001H17.3032L15.4015 1.09838C15.0533 0.750149 14.6399 0.473919 14.1849 0.285459C13.7299 0.0969991 13.2423 0 12.7498 0C11.7552 0 10.8014 0.395098 10.0981 1.09838C9.3948 1.80166 8.9997 2.75551 8.9997 3.7501C8.9997 4.74468 9.3948 5.69854 10.0981 6.40182L10.3179 6.62119L5.46964 11.469C5.37458 11.5642 5.30675 11.683 5.27319 11.8133C5.23964 11.9435 5.2416 12.0804 5.27886 12.2096L7.40605 19.5001H3.7498C2.10496 19.5001 0.556674 20.5885 0.0687052 22.0876C-0.000886634 22.3027 -0.0179236 22.5314 0.0190211 22.7544C0.0559657 22.9775 0.145816 23.1884 0.281049 23.3696C0.422357 23.5641 0.607483 23.7225 0.821425 23.832C1.03537 23.9415 1.2721 23.9991 1.51246 24.0001H16.4871C16.7275 23.9991 16.9642 23.9415 17.1782 23.832C17.3921 23.7225 17.5772 23.5641 17.7185 23.3696C17.8533 23.1881 17.9427 22.977 17.9791 22.7538C18.0156 22.5307 17.9981 22.3021 17.9281 22.0871C17.4373 20.5876 15.8904 19.5001 14.2498 19.5001H8.96933L6.84355 12.2153L11.3782 7.68197L11.9998 8.30353V14.176C11.9995 14.2847 12.0207 14.3923 12.0623 14.4927C12.1039 14.5931 12.1649 14.6843 12.242 14.7609C12.319 14.8376 12.4105 14.8982 12.5111 14.9392C12.6117 14.9803 12.7194 15.001 12.8281 15.0001C12.9358 15.0003 13.0424 14.9789 13.1417 14.9372C13.2409 14.8955 13.3308 14.8343 13.406 14.7573L16.226 11.9373C16.8092 12.4332 17.5493 12.7501 18.3748 12.7501C19.2696 12.7491 20.1275 12.3932 20.7602 11.7605C21.3929 11.1278 21.7488 10.2699 21.7498 9.3751C21.7498 8.54963 21.4334 7.80947 20.9375 7.22494L23.757 4.40635C24.2754 3.88603 23.9084 3.0001 23.1757 3.0001ZM14.2498 21.0001C15.2623 21.0001 16.211 21.6535 16.4881 22.5001H1.49652C1.78949 21.6006 2.73683 21.0001 3.75074 21.0001H14.2498ZM18.3748 11.2501C17.9795 11.2497 17.5951 11.1209 17.2793 10.8831L19.8828 8.27963C20.1205 8.59541 20.2493 8.97983 20.2498 9.3751C20.2498 9.87238 20.0523 10.3493 19.7006 10.7009C19.349 11.0526 18.8721 11.2501 18.3748 11.2501ZM13.4998 12.5406V7.68197L11.1589 5.34103C10.7426 4.91792 10.5104 4.34745 10.5128 3.75389C10.5152 3.16033 10.7521 2.59178 11.1718 2.17206C11.5915 1.75235 12.16 1.51549 12.7536 1.51307C13.3472 1.51065 13.9176 1.74288 14.3407 2.15916L16.6817 4.5001H21.5403L13.4998 12.5406Z" fill="#204C82"/>
</g>
<defs>
<clipPath id="clip0_13_432">
<rect width="24" height="24" fill="white"/>
</clipPath>
</defs>
</svg>
