<svg width="32" height="30" viewBox="0 0 32 30" fill="none" xmlns="http://www.w3.org/2000/svg">
<path d="M30.2056 2.55561V27.4445H28.4278V2.55561H30.2056ZM21.3167 9.66672V27.4445H19.539V9.66672H21.3167ZM12.4278 16.7778V27.4445H10.6501V16.7778H12.4278ZM3.53895 23.8889V27.4445H1.76118V23.8889H3.53895ZM30.2056 0.777832H28.4278C27.4462 0.777832 26.6501 1.57394 26.6501 2.55561V27.4445C26.6501 28.4262 27.4462 29.2223 28.4278 29.2223H30.2056C31.1873 29.2223 31.9834 28.4262 31.9834 27.4445V2.55561C31.9834 1.57394 31.1873 0.777832 30.2056 0.777832ZM21.3167 7.88894H19.539C18.5573 7.88894 17.7612 8.68505 17.7612 9.66672V27.4445C17.7612 28.4262 18.5573 29.2223 19.539 29.2223H21.3167C22.2984 29.2223 23.0945 28.4262 23.0945 27.4445V9.66672C23.0945 8.68505 22.2984 7.88894 21.3167 7.88894ZM12.4278 15.0001H10.6501C9.6684 15.0001 8.87229 15.7962 8.87229 16.7778V27.4445C8.87229 28.4262 9.6684 29.2223 10.6501 29.2223H12.4278C13.4095 29.2223 14.2056 28.4262 14.2056 27.4445V16.7778C14.2056 15.7962 13.4095 15.0001 12.4278 15.0001ZM3.53895 22.1112H1.76118C0.779509 22.1112 -0.0166016 22.9073 -0.0166016 23.8889V27.4445C-0.0166016 28.4262 0.779509 29.2223 1.76118 29.2223H3.53895C4.52062 29.2223 5.31673 28.4262 5.31673 27.4445V23.8889C5.31673 22.9073 4.52062 22.1112 3.53895 22.1112Z" fill="#204C82"/>
</svg>
