<svg width="46" height="54" viewBox="0 0 46 54" fill="none" xmlns="http://www.w3.org/2000/svg">
<path d="M23 30C24.5938 30 26 28.6875 26 27V6C26 4.40625 24.5938 3 23 3C21.3125 3 20 4.40625 20 6V27C20 28.6875 21.3125 30 23 30ZM36.7812 9.28125C35.4688 8.25 33.5938 8.53125 32.5625 9.84375C31.5312 11.1562 31.8125 13.0312 33.125 14.0625C37.1562 17.1562 39.5 21.9375 39.5 27C39.5 36.1875 32.0938 43.5 23 43.5C13.8125 43.5 6.5 36.0938 6.5 27C6.5 21.9375 8.75 17.1562 12.7812 14.0625C14.0938 13.0312 14.375 11.1562 13.3438 9.84375C12.3125 8.53125 10.4375 8.25 9.125 9.28125C3.59375 13.5938 0.5 20.0625 0.5 27C0.5 39.4688 10.5312 49.5 23 49.5C35.375 49.5 45.5 39.4688 45.5 27C45.5 20.0625 42.3125 13.5938 36.7812 9.28125Z" fill="#204C82"/>
</svg>
