<svg width="24" height="24" viewBox="0 0 24 24" fill="none" xmlns="http://www.w3.org/2000/svg">
<path d="M15.2504 22.5H12.75V16.4189C16.3468 16.0102 19.058 12.7814 18.7219 9.03094L17.9738 0.682031C17.9396 0.295781 17.6204 0 17.2379 0H6.76224C6.38021 0 6.06052 0.295781 6.0263 0.682031L5.27817 9.03094C4.94208 12.7814 7.65333 16.0102 11.25 16.4189V22.5H8.75021C8.05974 22.5 7.50005 23.0597 7.50005 23.7502C7.50005 23.8884 7.61208 24 7.74989 24H16.2502C16.3885 24 16.5 23.888 16.5 23.7502C16.5 23.0597 15.9404 22.5 15.2504 22.5ZM16.5413 1.5L16.9444 6H7.05567L7.4588 1.5H16.5413ZM6.77208 9.16453L6.92161 7.5H17.079L17.228 9.16453C17.3129 10.1095 17.154 11.0152 16.8029 11.8177C15.9727 13.7152 14.0715 14.9184 12.0005 14.9184C9.92958 14.9184 8.02833 13.7152 7.19817 11.8177C6.84614 11.0152 6.68771 10.1095 6.77208 9.16453Z" fill="#4580C9"/>
</svg>
