<svg width="112" height="54" viewBox="0 0 112 54" fill="none" xmlns="http://www.w3.org/2000/svg">
<g clip-path="url(#clip0_177_3164)">
<path d="M90.0801 11.9219H94.9279C106.894 11.9219 111.96 18.3856 111.96 26.5299C111.96 34.6741 106.894 41.1459 94.9279 41.1459H90.0801V11.9219Z" fill="#204C82"/>
<path d="M86.452 41.146C85.7248 32.1291 80.3195 28.3559 73.67 28.3559C67.0204 28.3559 61.6071 32.1291 60.8799 41.146H86.452Z" fill="#204C82"/>
<path d="M80.7236 18.5392C80.7236 19.9391 80.3085 21.3075 79.5308 22.4714C78.7531 23.6353 77.6477 24.5425 76.3544 25.0782C75.0611 25.6139 73.638 25.7541 72.265 25.481C70.8921 25.2079 69.631 24.5338 68.6411 23.5439C67.6513 22.5541 66.9772 21.293 66.7041 19.92C66.431 18.547 66.5712 17.1239 67.1069 15.8306C67.6426 14.5373 68.5497 13.432 69.7137 12.6542C70.8776 11.8765 72.246 11.4614 73.6459 11.4614C75.523 11.4614 77.3232 12.2071 78.6506 13.5344C79.9779 14.8618 80.7236 16.6621 80.7236 18.5392" fill="#204C82"/>
<path d="M13.8485 35.0783L5.73655 22.9749V41.138H0V12.9724H5.46184L13.9939 26.2795L22.4776 12.9724H27.8425V41.138H22.0655V22.9749L14.0343 35.0783H13.8485Z" fill="#204C82"/>
<path d="M38.669 20.6318H32.981V41.138H38.669V20.6318Z" fill="#204C82"/>
<path d="M44.8583 25.1969H41.7395V20.6077H44.8583V15.0569H50.514V20.6077H55.0063V25.1969H50.514V34.1895C50.4731 34.5059 50.5052 34.8274 50.6081 35.1294C50.7109 35.4314 50.8817 35.7057 51.1073 35.9313C51.3329 36.1568 51.6072 36.3276 51.9092 36.4305C52.2111 36.5333 52.5327 36.5655 52.849 36.5245C53.7222 36.5205 54.5785 36.2835 55.3295 35.8378V40.8876C54.1648 41.3644 52.9104 41.5822 51.6532 41.5258C47.4841 41.5258 44.8664 39.4655 44.8664 34.9248L44.8583 25.1969Z" fill="#204C82"/>
<path d="M39.1945 14.8306C39.1945 15.497 38.9969 16.1484 38.6267 16.7025C38.2565 17.2565 37.7303 17.6884 37.1146 17.9434C36.499 18.1984 35.8215 18.2651 35.168 18.1351C34.5144 18.0051 33.9141 17.6842 33.4429 17.213C32.9717 16.7418 32.6508 16.1415 32.5208 15.4879C32.3908 14.8344 32.4575 14.1569 32.7125 13.5413C32.9675 12.9257 33.3994 12.3994 33.9534 12.0292C34.5075 11.659 35.1589 11.4614 35.8253 11.4614C36.7189 11.4614 37.5758 11.8164 38.2077 12.4483C38.8395 13.0801 39.1945 13.9371 39.1945 14.8306Z" fill="#204C82"/>
</g>
<defs>
<clipPath id="clip0_177_3164">
<rect width="112" height="30.0886" fill="white" transform="translate(0 11.4614)"/>
</clipPath>
</defs>
</svg>
