<svg width="32" height="32" viewBox="0 0 32 32" fill="none" xmlns="http://www.w3.org/2000/svg">
<path d="M21.25 16.9375C21.25 17.7031 20.6484 18.25 19.9375 18.25H12.0625C11.2969 18.25 10.75 17.7031 10.75 16.9375V14.3125C10.75 13.6016 11.2969 13 12.0625 13H19.9375C20.6484 13 21.25 13.6016 21.25 14.3125V16.9375ZM19.5 16.5V14.75H16.875V16.5H19.5ZM15.125 16.5V14.75H12.5V16.5H15.125ZM24.3125 27C23.5469 27 23 26.4531 23 25.6875V23.0625C23 22.3516 23.5469 21.75 24.3125 21.75H26.9375C27.6484 21.75 28.25 22.3516 28.25 23.0625V25.6875C28.25 26.4531 27.6484 27 26.9375 27H24.3125ZM24.75 23.5V25.25H26.5V23.5H24.75ZM9 22.1875C9 22.9531 8.39844 23.5 7.6875 23.5H5.0625C4.29688 23.5 3.75 22.9531 3.75 22.1875V19.5625C3.75 18.8516 4.29688 18.25 5.0625 18.25H7.6875C8.39844 18.25 9 18.8516 9 19.5625V22.1875ZM7.25 21.75V20H5.5V21.75H7.25ZM24.3125 20C23.5469 20 23 19.4531 23 18.6875V16.0625C23 15.3516 23.5469 14.75 24.3125 14.75H26.9375C27.6484 14.75 28.25 15.3516 28.25 16.0625V18.6875C28.25 19.4531 27.6484 20 26.9375 20H24.3125ZM24.75 16.5V18.25H26.5V16.5H24.75ZM9 15.1875C9 15.9531 8.39844 16.5 7.6875 16.5H5.0625C4.29688 16.5 3.75 15.9531 3.75 15.1875V12.5625C3.75 11.8516 4.29688 11.25 5.0625 11.25H7.6875C8.39844 11.25 9 11.8516 9 12.5625V15.1875ZM7.25 14.75V13H5.5V14.75H7.25ZM12.0625 11.25C11.2969 11.25 10.75 10.7031 10.75 9.9375V7.3125C10.75 6.60156 11.2969 6 12.0625 6H19.9375C20.6484 6 21.25 6.60156 21.25 7.3125V9.9375C21.25 10.7031 20.6484 11.25 19.9375 11.25H12.0625ZM16.875 7.75V9.5H19.5V7.75H16.875ZM12.5 7.75V9.5H15.125V7.75H12.5ZM3.75 30.5C1.78125 30.5 0.25 28.9688 0.25 27V11.25C0.25 9.33594 1.78125 7.75 3.75 7.75H7.25V6C7.25 4.08594 8.78125 2.5 10.75 2.5H21.25C23.1641 2.5 24.75 4.08594 24.75 6V11.25H28.25C30.1641 11.25 31.75 12.8359 31.75 14.75V27C31.75 28.9688 30.1641 30.5 28.25 30.5H3.75ZM3.75 9.5C2.76562 9.5 2 10.3203 2 11.25V27C2 27.9844 2.76562 28.75 3.75 28.75H12.5V25.25C12.5 23.3359 14.0312 21.75 16 21.75C17.9141 21.75 19.5 23.3359 19.5 25.25V28.75H28.25C29.1797 28.75 30 27.9844 30 27V14.75C30 13.8203 29.1797 13 28.25 13H23V6C23 5.07031 22.1797 4.25 21.25 4.25H10.75C9.76562 4.25 9 5.07031 9 6V9.5H3.75ZM17.75 25.25C17.75 24.3203 16.9297 23.5 16 23.5C15.0156 23.5 14.25 24.3203 14.25 25.25V28.75H17.75V25.25Z" fill="#204C82"/>
</svg>
