<svg width="33" height="32" viewBox="0 0 33 32" fill="none" xmlns="http://www.w3.org/2000/svg">
<path d="M6.875 18.6875C6.875 17.9766 7.42188 17.375 8.1875 17.375C8.89844 17.375 9.5 17.9766 9.5 18.6875C9.5 19.4531 8.89844 20 8.1875 20C7.42188 20 6.875 19.4531 6.875 18.6875ZM26.125 18.6875C26.125 19.4531 25.5234 20 24.8125 20C24.0469 20 23.5 19.4531 23.5 18.6875C23.5 17.9766 24.0469 17.375 24.8125 17.375C25.5234 17.375 26.125 17.9766 26.125 18.6875ZM5.125 13.7109L6.98438 7.42188C7.58594 5.5625 9.28125 4.25 11.1953 4.25H21.75C23.6641 4.25 25.3594 5.5625 25.9609 7.42188L27.8203 13.7109C29.4062 14.6406 30.5 16.3359 30.5 18.25V27.875C30.5 28.3672 30.0625 28.75 29.625 28.75C29.1328 28.75 28.75 28.3672 28.75 27.875V25.25H4.25V27.875C4.25 28.3672 3.8125 28.75 3.375 28.75C2.88281 28.75 2.5 28.3672 2.5 27.875V18.25C2.5 16.3359 3.53906 14.6406 5.125 13.7109ZM7.14844 13.0547C7.3125 13.0547 7.53125 13 7.75 13H25.25C25.4141 13 25.6328 13.0547 25.7969 13.0547L24.2656 7.91406C23.9375 6.76562 22.8984 6 21.75 6H11.1953C10.0469 6 9.00781 6.76562 8.67969 7.91406L7.14844 13.0547ZM4.25 18.25V23.5H28.75V18.25C28.75 16.7734 27.7656 15.4609 26.3984 14.9688C26.0156 14.8594 25.6328 14.75 25.25 14.75H7.75C7.3125 14.75 6.92969 14.8594 6.54688 14.9688C5.17969 15.4609 4.25 16.7734 4.25 18.25Z" fill="#204C82"/>
</svg>
