<svg width="33" height="32" viewBox="0 0 33 32" fill="none" xmlns="http://www.w3.org/2000/svg">
<path d="M22.9531 4.25C24.3203 4.25 25.5781 5.07031 26.125 6.38281L28.4219 11.4688C28.6406 11.9062 28.75 12.3984 28.75 12.8906V25.25C28.75 27.2188 27.1641 28.75 25.25 28.75H7.75C5.78125 28.75 4.25 27.2188 4.25 25.25V12.8906C4.25 12.3984 4.30469 11.9062 4.52344 11.4688L6.82031 6.38281C7.36719 5.07031 8.625 4.25 9.99219 4.25H22.9531ZM22.9531 6H17.375V11.25H26.3984L24.5391 7.03906C24.2656 6.4375 23.6641 6 22.9531 6ZM27 13H6V25.25C6 26.2344 6.76562 27 7.75 27H25.25C26.1797 27 27 26.2344 27 25.25V13ZM6.54688 11.25H15.625V6H9.99219C9.28125 6 8.67969 6.4375 8.40625 7.03906L6.54688 11.25Z" fill="#204C82"/>
</svg>
