<svg width="33" height="32" viewBox="0 0 33 32" fill="none" xmlns="http://www.w3.org/2000/svg">
<path d="M4.25 24.375C4.25 25.8516 5.39844 27 6.875 27H29.625C30.0625 27 30.5 27.4375 30.5 27.875C30.5 28.3672 30.0625 28.75 29.625 28.75H6.875C4.41406 28.75 2.5 26.8359 2.5 24.375V5.125C2.5 4.6875 2.88281 4.25 3.375 4.25C3.8125 4.25 4.25 4.6875 4.25 5.125V24.375ZM20.875 9.5H27.875C28.3125 9.5 28.75 9.9375 28.75 10.375V17.375C28.75 17.8672 28.3125 18.25 27.875 18.25C27.3828 18.25 27 17.8672 27 17.375V12.5078L20.6016 18.9062C20.2734 19.2344 19.6719 19.2344 19.3438 18.9062L14.6953 14.2578L9.22656 19.7812C8.89844 20.1094 8.29688 20.1094 7.96875 19.7812C7.64062 19.4531 7.64062 18.8516 7.96875 18.5234L14.0938 12.3984C14.4219 12.0703 15.0234 12.0703 15.3516 12.3984L20 17.0469L25.7422 11.25H20.875C20.3828 11.25 20 10.8672 20 10.375C20 9.9375 20.3828 9.5 20.875 9.5Z" fill="#204C82"/>
</svg>
