<svg width="24" height="24" viewBox="0 0 24 24" fill="none" xmlns="http://www.w3.org/2000/svg">
<path d="M6.3375 6.48834C6 6.11335 5.4375 6.11335 5.0625 6.45085L0.2625 10.9508C0.075 11.1009 0 11.3633 0 11.5883C0 11.8508 0.075 12.0758 0.2625 12.2633L5.0625 16.7633C5.25 16.9134 5.47499 16.9883 5.6625 16.9883C5.8875 16.9883 6.1125 16.9134 6.3 16.7259C6.6375 16.3508 6.6375 15.7883 6.2625 15.4508L2.2125 11.5883L6.3 7.76334C6.675 7.42584 6.675 6.86334 6.3375 6.48834ZM14.625 2.02584C14.1375 1.91335 13.65 2.17584 13.5 2.66334L8.7 20.0633C8.5875 20.5508 8.85 21.0384 9.33754 21.1883C9.41251 21.1883 9.48749 21.1883 9.6 21.1883C9.97498 21.1883 10.35 20.9633 10.4625 20.5508L15.2625 3.15085C15.375 2.66334 15.1125 2.17584 14.625 2.02584ZM23.7 10.9508L18.9 6.45085C18.525 6.11335 17.9625 6.11335 17.625 6.48834C17.2875 6.86334 17.2875 7.42584 17.6625 7.76334L21.75 11.5883L17.6625 15.4508C17.2875 15.7883 17.2875 16.3508 17.625 16.7259C17.8125 16.9134 18.0375 16.9883 18.3 16.9883C18.4875 16.9883 18.7125 16.9134 18.9 16.7633L23.7 12.2633C23.8875 12.0758 24 11.8508 24 11.5883C24 11.3633 23.8875 11.1009 23.7 10.9508Z" fill="#204C82"/>
</svg>
