<svg width="33" height="32" viewBox="0 0 33 32" fill="none" xmlns="http://www.w3.org/2000/svg">
<path d="M6 22.625C6 22.1875 6.38281 21.75 6.875 21.75H10.375C10.8125 21.75 11.25 22.1875 11.25 22.625C11.25 23.1172 10.8125 23.5 10.375 23.5H6.875C6.38281 23.5 6 23.1172 6 22.625ZM13 22.625C13 22.1875 13.3828 21.75 13.875 21.75H20.875C21.3125 21.75 21.75 22.1875 21.75 22.625C21.75 23.1172 21.3125 23.5 20.875 23.5H13.875C13.3828 23.5 13 23.1172 13 22.625ZM0.75 7.75C0.75 5.83594 2.28125 4.25 4.25 4.25H28.75C30.6641 4.25 32.25 5.83594 32.25 7.75V25.25C32.25 27.2188 30.6641 28.75 28.75 28.75H4.25C2.28125 28.75 0.75 27.2188 0.75 25.25V7.75ZM2.5 7.75V9.5H30.5V7.75C30.5 6.82031 29.6797 6 28.75 6H4.25C3.26562 6 2.5 6.82031 2.5 7.75ZM2.5 14.75H30.5V11.25H2.5V14.75ZM2.5 16.5V25.25C2.5 26.2344 3.26562 27 4.25 27H28.75C29.6797 27 30.5 26.2344 30.5 25.25V16.5H2.5Z" fill="#204C82"/>
</svg>
