<svg width="32" height="32" viewBox="0 0 32 32" fill="none" xmlns="http://www.w3.org/2000/svg">
<path d="M30.7656 20.7656C30.2188 20.2734 29.5625 20.0547 28.8516 20.0547C28.1406 20.0547 27.4844 20.2734 26.9375 20.7109L23.6016 23.3906C23.4922 23.5 23.3281 23.5 23.2188 23.5H20.9219C21.1953 23.0078 21.3047 22.4062 21.1953 21.75C20.9766 20.2188 19.5547 19.125 18.0234 19.125H10.1484C9 19.125 7.96094 19.5078 6.97656 20.2188L4.89844 21.75H1.125C0.632812 21.75 0.25 22.1875 0.25 22.625C0.25 23.1172 0.632812 23.5 1.07031 23.5H5.44531L7.96094 21.5312C8.61719 21.0938 9.32812 20.875 10.0938 20.875H18.1328C18.8438 20.875 19.4453 21.4219 19.4453 22.1875C19.4453 22.8984 18.8438 23.5 18.1328 23.5H13.3203C12.8281 23.5 12.4453 23.8828 12.4453 24.375C12.4453 24.8125 12.8281 25.25 13.3203 25.25H23.1641C23.6562 25.25 24.2031 25.0312 24.5859 24.7031L27.9766 22.0234C28.1953 21.8594 28.5234 21.75 28.7969 21.75C29.0703 21.75 29.3438 21.8594 29.5078 22.0234C30.1094 22.5156 30.0547 23.3906 29.5078 23.8281L23.9844 28.2031C23.5469 28.5312 23.0547 28.75 22.5078 28.75H1.125C0.632812 28.75 0.25 29.1328 0.25 29.625C0.25 30.0625 0.632812 30.5 1.07031 30.5H22.5078C23.4375 30.5 24.3125 30.2266 25.0781 29.625L30.6016 25.1953C31.2578 24.7031 31.6406 23.8828 31.6406 23.0078C31.75 22.1875 31.3672 21.3672 30.7656 20.7656ZM10.75 13H12.5V14.75C12.5 15.7344 13.2656 16.5 14.25 16.5H17.75C18.6797 16.5 19.5 15.7344 19.5 14.75V13H21.25C22.1797 13 23 12.2344 23 11.25V7.75C23 6.82031 22.1797 6 21.25 6H19.5V4.25C19.5 3.32031 18.6797 2.5 17.75 2.5H14.25C13.2656 2.5 12.5 3.32031 12.5 4.25V6H10.75C9.76562 6 9 6.82031 9 7.75V11.25C9 12.2344 9.76562 13 10.75 13ZM10.75 7.75H14.25V4.25H17.75V7.75H21.25V11.25H17.75V14.75H14.25V11.25H10.75V7.75Z" fill="#204C82"/>
</svg>
