<svg width="17" height="16" viewBox="0 0 17 16" fill="none" xmlns="http://www.w3.org/2000/svg">
<path d="M16.5 10.5002V14.2502C16.5 14.6877 16.1562 15.0002 15.75 15.0002C15.3125 15.0002 15 14.6877 15 14.2814V10.5627C15 8.78143 13.5312 7.34393 11.75 7.34393H3.25L7.21875 10.7814C7.53125 11.0627 7.5625 11.5314 7.3125 11.8439C7.15625 11.9377 6.9375 12.0002 6.75 12.0002C6.5625 12.0002 6.375 11.9689 6.25 11.8439L0.75 7.12518C0.59375 6.93768 0.5 6.71893 0.5 6.50018C0.5 6.28143 0.59375 6.09393 0.75 5.93768L6.25 1.21893C6.53125 0.968933 7.03125 1.00018 7.3125 1.31268C7.5625 1.62518 7.53125 2.09393 7.21875 2.37518L3.25 5.75018H11.75C14.3438 5.75018 16.5 7.90643 16.5 10.5002Z" fill="white"/>
</svg>
