<svg width="54" height="57" viewBox="0 0 54 57" fill="none" xmlns="http://www.w3.org/2000/svg">
<g clip-path="url(#clip0_177_2326)">
<path d="M38.5077 37.2938C35.4482 37.5061 31.0835 40.6111 28.8746 41.6299C27.1559 42.4243 25.6734 43.1096 24.3799 43.1096C23.0451 43.1096 22.8443 42.1272 23.1219 39.9622C23.1869 39.477 23.8129 35.1591 20.5999 35.3471C19.1175 35.4381 16.8022 36.8511 10.5888 42.9883L13.0399 36.6995C14.8354 32.0966 9.89781 27.5118 5.37953 30.4652L2.137 32.703C1.69994 32.988 1.57 33.5884 1.84759 34.0433L2.86347 35.6807C3.14106 36.1355 3.72578 36.2689 4.16875 35.9778L7.59437 33.6187C8.68112 32.9092 9.99822 34.0554 9.52572 35.2622L3.72578 50.1565C3.32415 51.1814 3.88525 52.8188 5.47994 52.8188C5.97015 52.8188 6.45447 52.6247 6.81475 52.2487C9.30719 49.6895 15.9517 43.1096 19.2887 40.3745C19.1588 42.1029 19.1647 43.9465 20.5054 45.4566C21.4091 46.4754 22.7085 46.9909 24.374 46.9909C26.4767 46.9909 28.3903 46.1055 30.4161 45.1715C32.3652 44.274 36.2633 41.3752 38.5904 41.1811C39.0924 41.1387 39.4881 40.7384 39.4881 40.2229V38.2762C39.4999 37.7244 39.0452 37.2574 38.5077 37.2938V37.2938Z" fill="#204C82"/>
</g>
<g clip-path="url(#clip1_177_2326)">
<path d="M38.2299 7.00567L45.9936 14.7694L29.135 31.628L22.213 32.3921C21.2864 32.4946 20.5035 31.711 20.6066 30.7844L21.3767 23.8576L38.2299 7.00567V7.00567ZM50.7954 5.84978L47.1501 2.20444C46.013 1.06735 44.1688 1.06735 43.0317 2.20444L39.6022 5.63389L47.366 13.3976L50.7954 9.96815C51.9325 8.83046 51.9325 6.98687 50.7954 5.84978V5.84978Z" fill="#204C82"/>
</g>
<defs>
<clipPath id="clip0_177_2326">
<rect width="37.8" height="31.05" fill="white" transform="translate(1.69995 25.65)"/>
</clipPath>
<clipPath id="clip1_177_2326">
<rect width="31.05" height="31.05" fill="white" transform="translate(20.6 1.34998)"/>
</clipPath>
</defs>
</svg>
