<svg width="26" height="21" viewBox="0 0 26 21" fill="none" xmlns="http://www.w3.org/2000/svg">
<path d="M7.10156 5.1875C6.75 4.79688 6.16406 4.79688 5.77344 5.14844L0.773438 9.83594C0.578125 9.99219 0.5 10.2656 0.5 10.5C0.5 10.7734 0.578125 11.0078 0.773438 11.2031L5.77344 15.8906C5.96875 16.0469 6.20312 16.125 6.39844 16.125C6.63281 16.125 6.86719 16.0469 7.0625 15.8516C7.41406 15.4609 7.41406 14.875 7.02344 14.5234L2.80469 10.5L7.0625 6.51562C7.45312 6.16406 7.45312 5.57812 7.10156 5.1875ZM15.7344 0.539062C15.2266 0.421875 14.7188 0.695312 14.5625 1.20312L9.5625 19.3281C9.44531 19.8359 9.71875 20.3438 10.2266 20.5C10.3047 20.5 10.3828 20.5 10.5 20.5C10.8906 20.5 11.2812 20.2656 11.3984 19.8359L16.3984 1.71094C16.5156 1.20312 16.2422 0.695312 15.7344 0.539062ZM25.1875 9.83594L20.1875 5.14844C19.7969 4.79688 19.2109 4.79688 18.8594 5.1875C18.5078 5.57812 18.5078 6.16406 18.8984 6.51562L23.1562 10.5L18.8984 14.5234C18.5078 14.875 18.5078 15.4609 18.8594 15.8516C19.0547 16.0469 19.2891 16.125 19.5625 16.125C19.7578 16.125 19.9922 16.0469 20.1875 15.8906L25.1875 11.2031C25.3828 11.0078 25.5 10.7734 25.5 10.5C25.5 10.2656 25.3828 9.99219 25.1875 9.83594Z" fill="#204C82"/>
</svg>
