<svg width="40" height="40" viewBox="0 0 40 40" fill="none" xmlns="http://www.w3.org/2000/svg">
<path d="M27.3438 16.75C27.3438 16.9062 27.3438 17.0312 27.3438 17.1875C27.3438 21.5312 24.0625 26.5 18.0312 26.5C16.1562 26.5 14.4375 25.9688 13 25.0312C13.25 25.0625 13.5 25.0938 13.7812 25.0938C15.3125 25.0938 16.7188 24.5625 17.8438 23.6875C16.4062 23.6562 15.1875 22.7188 14.7812 21.4062C15 21.4375 15.1875 21.4688 15.4062 21.4688C15.6875 21.4688 16 21.4062 16.25 21.3438C14.75 21.0312 13.625 19.7188 13.625 18.125V18.0938C14.0625 18.3438 14.5938 18.4688 15.125 18.5C14.2188 17.9062 13.6562 16.9062 13.6562 15.7812C13.6562 15.1562 13.8125 14.5938 14.0938 14.125C15.7188 16.0938 18.1562 17.4062 20.875 17.5625C20.8125 17.3125 20.7812 17.0625 20.7812 16.8125C20.7812 15 22.25 13.5312 24.0625 13.5312C25 13.5312 25.8438 13.9062 26.4688 14.5625C27.1875 14.4062 27.9062 14.125 28.5312 13.75C28.2812 14.5312 27.7812 15.1562 27.0938 15.5625C27.75 15.5 28.4062 15.3125 28.9688 15.0625C28.5312 15.7188 27.9688 16.2812 27.3438 16.75Z" fill="white"/>
<path d="M20 0C8.90625 0 0 8.98438 0 20C0 31.0938 8.90625 40 20 40C31.0156 40 40 31.0938 40 20C40 8.98438 31.0156 0 20 0ZM20 38.75C9.60938 38.75 1.25 30.3906 1.25 20C1.25 9.6875 9.60938 1.25 20 1.25C30.3125 1.25 38.75 9.6875 38.75 20C38.75 30.3906 30.3125 38.75 20 38.75Z" fill="white"/>
</svg>
