<svg width="22" height="23" viewBox="0 0 22 23" fill="none" xmlns="http://www.w3.org/2000/svg">
<path d="M15.8281 2.71875C15.4531 2.53125 14.9844 2.67188 14.7969 3.04688C14.6094 3.375 14.75 3.84375 15.125 4.03125C18.125 5.57812 20 8.67188 20 12C20 16.9688 15.9219 21 11 21C6.03125 21 2 16.9688 2 12C2 8.67188 3.82812 5.57812 6.82812 4.03125C7.20312 3.84375 7.34375 3.375 7.15625 3.04688C6.96875 2.67188 6.5 2.53125 6.125 2.71875C2.65625 4.54688 0.5 8.10938 0.5 12C0.5 17.8125 5.1875 22.5 11 22.5C16.7656 22.5 21.5 17.8125 21.5 12C21.5 8.10938 19.2969 4.54688 15.8281 2.71875ZM10.9531 13.5C11.375 13.5 11.75 13.1719 11.75 12.75V0.75C11.75 0.375 11.375 0 11 0C10.625 0 10.25 0.375 10.25 0.75V12.75C10.25 13.1719 10.5781 13.5 10.9531 13.5Z" fill="white"/>
</svg>
